<svg version="1" xmlns="http://www.w3.org/2000/svg" width="253.333" height="253.333" viewBox="0 0 190.000000 190.000000"><path d="M25.5 1.8l-5 .3.3 72.5c.3 58.7.1 72.9-1 74.2-.8 1-.9 1.3-.1.9.9-.6 1.2 3.9 1.3 18 0 10.3.3 18.9.6 19.2.5.6 147.2 1 148.9.4.7-.2 1-24.4.9-70.1l-.1-69.9-22.6-22.7L126 2l-47.7-.3c-26.3-.1-50-.1-52.8.1zm76.8 18.1l12.7.1v17.7c-.1 9.8-.1 18.5-.1 19.3.1 1.3 2.6 1.6 18.4 1.5 10 0 18.7.1 19.2.2 1 .3 1.4 109.7.4 110.7-.4.4-97.2 1-111.1.7L38 170v-8.8c0-4.9.3-9.2.7-9.6 1-1 1.3-3.6.4-3.6-.5 0-.9-28.8-.9-63.9l-.2-64 3.3-.3c2.8-.3 11.6-.3 61 .1z"/><path d="M71.3 90.7C70.4 91 70 94 70 101c0 8.9.2 9.8 2 10.3 1.6.4 2 0 2.2-2.1 0-1.5.2-3.2.3-3.7.2-.6.3-1.5.4-2.2.1-.7 1.3-1 2.9-.9 2.4.3 2.8.8 3.2 4.7.3 3 1 4.4 2 4.4 1.2 0 1.6-1.8 1.8-9.4.1-5.2.1-10-.2-10.8-1-2.5-3.5-.1-3.8 3.5-.3 3.3-.6 3.7-3 3.8-3 .1-3 .2-3.2-3.8-.2-3.1-1.5-4.8-3.3-4.1zM92 91.9c-.5 1.1-1.6 4.3-2.4 7.3-.8 2.9-1.9 6.7-2.4 8.5-.8 2.3-.7 3.3.2 3.6 1.6.6 3.1-.3 3.9-2.5.8-2.3 6.8-2.1 7.4.3.6 2 2.5 3 4.1 2 1.7-1-4.1-19.3-6.4-20.2-2.9-1.1-3.2-1.1-4.4 1zM105.9 92.4c-.5 9-.3 17.3.4 18.3 1.6 2.3 3.7.2 3.7-3.8 0-5 1.7-5 3.8 0 1.5 3.5 4.7 5.9 6.1 4.5.3-.2-.5-2.7-1.6-5.4-1.7-4-1.8-5-.7-5.4 1.9-.7 1.8-7 0-8.6-.8-.6-3.8-1.3-6.5-1.4-4.6-.3-5.1-.1-5.2 1.8z"/></svg>